<?xml version="1.0" encoding="UTF-8"?>
<svg width="200px" height="108px" viewBox="0 0 200 108" version="1.1" xmlns="http://www.w3.org/2000/svg" xmlns:xlink="http://www.w3.org/1999/xlink">
    <!-- Generator: Sketch 53.2 (72643) - https://sketchapp.com -->
    <title>Group 7</title>
    <desc>Created with Sketch.</desc>
    <defs>
        <path d="M17.8090217,84.8925582 L0,84.8925582 L0,0 L17.8090217,0 L17.8090217,84.8925582 Z M56.3561804,107.288247 L37.6098418,107.288247 L50.8494435,77.0364789 L26.3620387,26.6168656 L46.2800234,26.6168656 L60.456942,57.8066729 L73.3450498,26.6168656 L92.208553,26.6168656 L56.3561804,107.288247 Z M122.554189,9.614903 L122.554189,26.6168656 L133.919156,26.6168656 L133.919156,42.2117693 L122.554189,42.2117693 L122.554189,64.0211834 C122.554189,68.0860407 124.702185,70.1184389 128.998243,70.1184389 C130.404225,70.1184389 131.966404,69.923016 133.684827,69.5321644 L133.684827,84.3062836 C131.497743,85.4006683 128.412439,85.9478524 124.428822,85.9478524 C118.414342,85.9478524 113.669223,84.2672154 110.193322,80.9058911 C106.717421,77.5445667 104.979496,72.9716708 104.979496,67.1870661 L104.979496,42.2117693 L94.66901,42.2117693 L94.66901,26.6168656 L97.5981254,26.6168656 C100.56631,26.6168656 102.811943,25.7374626 104.335091,23.97863 C105.858238,22.2197975 106.619801,19.9333496 106.619801,17.1192175 L106.619801,9.614903 L122.554189,9.614903 Z M159.461043,48.7780445 L182.776801,48.7780445 C182.620581,46.1202531 181.585637,43.8142629 179.671939,41.8600045 C177.758241,39.9057462 174.887736,38.9286317 171.06034,38.9286317 C167.623494,38.9286317 164.88968,39.9448308 162.858817,41.9772594 C160.827953,44.0096881 159.695373,46.2765938 159.461043,48.7780445 Z M184.065612,63.9039285 L198.945518,68.1251054 C197.461426,73.5188584 194.376122,77.9549583 189.689514,81.4335382 C185.002906,84.9121181 179.144733,86.6513819 172.114821,86.6513819 C163.678927,86.6513819 156.512429,83.8372921 150.615114,78.2090281 C144.717799,72.580764 141.769186,65.0374399 141.769186,55.5788295 C141.769186,46.5110708 144.63969,39.124085 150.380785,33.4176507 C156.12188,27.7112163 162.936887,24.8580419 170.826011,24.8580419 C179.886786,24.8580419 187.014229,27.4962511 192.208553,32.7727486 C197.402877,38.0492462 200,45.3776051 200,54.7580451 C200,57.7285178 199.882837,59.5654931 199.648506,60.2690261 L159.109549,60.2690261 C159.265769,63.4740098 160.632676,66.1513036 163.21031,68.3009878 C165.787945,70.450672 168.834194,71.5254979 172.349151,71.5254979 C178.363631,71.5254979 182.269079,68.9850002 184.065612,63.9039285 Z" id="path-1"></path>
    </defs>
    <g id="Page-1" stroke="none" stroke-width="1" fill="none" fill-rule="evenodd">
        <g id="Group-7">
            <mask id="mask-2" fill="white">
                <use xlink:href="#path-1"></use>
            </mask>
            <use id="lyte" fill="#FC9A4C" fill-rule="nonzero" xlink:href="#path-1"></use>
            <circle id="Oval" fill="#3AB359" mask="url(#mask-2)" cx="2.62639527" cy="-62.3768877" r="110.571241"></circle>
            <circle id="Oval" fill="#6CC0F1" mask="url(#mask-2)" cx="2.62639527" cy="152.330926" r="110.571241"></circle>
            <circle id="Oval" fill="#956BF4" mask="url(#mask-2)" cx="193.565332" cy="-53.1845043" r="110.571241"></circle>
            <circle id="Oval" fill="#E068C2" mask="url(#mask-2)" cx="175.049245" cy="164.281024" r="110.571241"></circle>
        </g>
    </g>
</svg>